
<svg width="50px" height="50px" viewBox="0 0 50 50" version="1.1" xmlns="http://www.w3.org/2000/svg" xmlns:xlink="http://www.w3.org/1999/xlink">
    <!-- Generator: Sketch 51.3 (57544) - http://www.bohemiancoding.com/sketch -->
    <desc>Created with Sketch.</desc>
    <defs></defs>
    <g id="Page-1" stroke="none" stroke-width="1" fill="none" fill-rule="evenodd">
        <g id="LEADHOUND" transform="translate(-186.000000, -100.000000)" fill="#FF4800">
            <path d="M186.002792,123.988381 C186.001861,123.991204 186.00093,123.994027 186,123.996851 L186,102 C186,100.895431 186.895431,100 188,100 L234,100 C235.104569,100 236,100.895431 236,102 L236,148 C236,149.104569 235.104569,150 234,150 L205.646814,150 L203.437749,139.703846 C215.013919,138.74953 221.270435,137.705307 222.207296,136.571177 C223.144157,135.437047 224.138945,133.161431 225.191659,129.744329 L212.786528,126.223327 L211.239554,120.582602 L201.186354,116.747892 L201.995006,106.935038 L186.002792,123.988381 Z" id="Combined-Shape"></path>
        </g>
    </g>
</svg>
